<?xml version="1.0" encoding="utf-8"?>
<!-- Generator: Adobe Illustrator 24.0.1, SVG Export Plug-In . SVG Version: 6.00 Build 0)  -->
<svg version="1.1" id="Layer_1" xmlns="http://www.w3.org/2000/svg" xmlns:xlink="http://www.w3.org/1999/xlink" x="0px" y="0px"
	 viewBox="0 0 512 512" style="enable-background:new 0 0 512 512;" xml:space="preserve">
<style type="text/css">
	.st0{fill:#B78A62;}
	.st1{fill:#9B7859;}
	.st2{fill:#444444;}
	.st3{fill:#D3A06C;}
	.st4{fill:#DDDDDD;}
	.st5{fill:#FFFFFF;}
	.st6{fill:#DEDEFF;}
	.st7{fill:#777777;}
	.st8{fill:#2561A1;}
	.st9{fill:#FF9864;}
	.st10{fill:#AF593C;}
	.st11{fill:#2B2B2B;}
</style>
<title>Commercial delivery</title>
<g>
	<rect x="25.8" y="52.4" class="st0" width="329.3" height="329.3"/>
	<rect x="135.3" y="52.4" class="st1" width="111.8" height="120.7"/>
	<rect x="61.5" y="77.1" class="st2" width="329.3" height="329.3"/>
	<rect x="68.5" y="82.5" class="st3" width="329.3" height="329.3"/>
	<rect x="178" y="82.5" class="st1" width="111.8" height="120.7"/>
	<path class="st4" d="M480.3,448.7H322.6c-6.6,0-12-5.4-12-12V208.9c0-6.6,5.4-12,12-12h157.7c6.6,0,12,5.4,12,12v227.7
		C492.3,443.3,486.9,448.7,480.3,448.7z"/>
	<rect x="328.7" y="217.1" class="st5" width="145.5" height="211.5"/>
	<rect x="355.2" y="187.2" class="st6" width="92.6" height="43.3"/>
	<path class="st7" d="M356.8,294.2h-6.2c-3.2,0-5.9-2.6-5.9-5.9v-27.7c0-3.2,2.6-5.9,5.9-5.9h27.7c3.2,0,5.9,2.6,5.9,5.9v4
		c0,3.2-2.6,5.9-5.9,5.9c-2.5,0-4.7-1.6-5.6-4h-16.3v16h0.3c3.2,0,5.9,2.6,5.9,5.9C362.7,291.6,360.1,294.2,356.8,294.2z"/>
	<path class="st8" d="M374.7,293.4c-1.6,0-3.1-0.6-4.2-1.7l-9.4-9.4c-2.3-2.3-2.3-6,0-8.3c2.3-2.3,6-2.3,8.3,0l5.2,5.2l17.2-17.2
		c2.3-2.3,6-2.3,8.3,0c2.3,2.3,2.3,6,0,8.3l-21.4,21.4C377.7,292.8,376.2,293.4,374.7,293.4z"/>
	<path class="st7" d="M452.3,280.4h-37c-3.2,0-5.9-2.6-5.9-5.9c0-3.2,2.6-5.9,5.9-5.9h37c3.2,0,5.9,2.6,5.9,5.9
		C458.2,277.8,455.5,280.4,452.3,280.4L452.3,280.4z"/>
	<path class="st7" d="M356.8,350.4h-6.2c-3.2,0-5.9-2.6-5.9-5.9v-27.7c0-3.2,2.6-5.9,5.9-5.9h27.7c3.2,0,5.9,2.6,5.9,5.9v4
		c0,3.2-2.6,5.9-5.9,5.9c-2.5,0-4.7-1.6-5.6-4h-16.3v16h0.3c3.2,0,5.9,2.6,5.9,5.9S360.1,350.4,356.8,350.4z"/>
	<path class="st8" d="M374.7,349.6c-1.6,0-3.1-0.6-4.2-1.7l-9.4-9.4c-2.3-2.3-2.3-6,0-8.3c2.3-2.3,6-2.3,8.3,0l5.2,5.2l17.2-17.2
		c2.3-2.3,6-2.3,8.3,0c2.3,2.3,2.3,6,0,8.3l-21.4,21.4C377.7,349,376.2,349.6,374.7,349.6z"/>
	<path class="st7" d="M452.3,336.6h-37c-3.2,0-5.9-2.6-5.9-5.9c0-3.2,2.6-5.9,5.9-5.9h37c3.2,0,5.9,2.6,5.9,5.9
		C458.2,333.9,455.5,336.6,452.3,336.6L452.3,336.6z"/>
	<g>
		<path class="st9" d="M277.7,395.3v-82.4h20.6v82.4L277.7,395.3z"/>
	</g>
	<g>
		<path class="st10" d="M277.7,312.9v82.4h-20.6V354v-41.2H277.7z"/>
	</g>
	<g>
		<path class="st11" d="M292.3,286.2c3.9,3.9,6,9.1,6,14.6v12h-20.6h-20.6v-12c0-5.5,2.2-10.7,6-14.6c4-4,9.3-6.1,14.6-6
			C283,280.2,288.2,282.2,292.3,286.2z"/>
	</g>
	<g>
		<path class="st11" d="M298.3,395.2l-7.7,12.9l-7.3,12.2c-0.3,0.4-0.6,0.8-1,1.2c-2.5,2.5-6.6,2.5-9.2,0c-0.4-0.4-0.7-0.8-1-1.2
			l-3.5-5.8l-11.6-19.3h20.6H298.3z"/>
	</g>
	<rect x="88.9" y="351.8" class="st5" width="92.7" height="43.4"/>
	<path d="M104.5,369.8h9.9v9.9h-9.9V369.8z"/>
	<path d="M128.9,369.8h9.9v9.9h-9.9V369.8z"/>
	<path d="M153.3,369.8h9.9v9.9h-9.9V369.8z"/>
</g>
</svg>
