<?xml version="1.0" encoding="utf-8"?>
<!-- Generator: Adobe Illustrator 24.0.1, SVG Export Plug-In . SVG Version: 6.00 Build 0)  -->
<svg version="1.1" id="圖層_1" xmlns="http://www.w3.org/2000/svg" xmlns:xlink="http://www.w3.org/1999/xlink" x="0px" y="0px"
	 viewBox="0 0 1080 790" style="enable-background:new 0 0 1080 790;" xml:space="preserve">
<style type="text/css">
	.st0{clip-path:url(#SVGID_2_);}
	.st1{fill:#040000;}
	.st2{fill:#F3C6A3;}
	.st3{fill:#DCDCDC;}
	.st4{fill:none;stroke:#40210F;stroke-width:0.5441;stroke-linecap:round;stroke-miterlimit:10;}
	.st5{fill:#D1AA8E;}
	.st6{fill:#FFFFFF;}
	.st7{fill:#D79787;}
	.st8{fill:#40210F;}
	.st9{fill:#701A40;}
	.st10{fill:#300E05;}
	.st11{fill:#E5E5E5;}
	.st12{fill:#EFEEEF;}
	.st13{clip-path:url(#SVGID_4_);}
	.st14{fill:#3C4756;}
	.st15{fill:#DEB697;}
	.st16{fill:#B5B4B5;}
	.st17{fill:#4F0D0E;}
	.st18{clip-path:url(#SVGID_6_);}
	.st19{fill:#B03337;}
	.st20{fill:#831E24;}
	.st21{fill:#5D3625;}
</style>
<g>
	<g>
		<g>
			<defs>
				
					<ellipse id="SVGID_1_" transform="matrix(0.2298 -0.9732 0.9732 0.2298 -33.1932 647.7151)" cx="392.6" cy="344.8" rx="111" ry="111"/>
			</defs>
			<use xlink:href="#SVGID_1_"  style="overflow:visible;fill:#279FCC;"/>
			<clipPath id="SVGID_2_">
				<use xlink:href="#SVGID_1_"  style="overflow:visible;"/>
			</clipPath>
			<g class="st0">
				<rect x="342" y="358.8" class="st1" width="104.2" height="85.3"/>
				<rect x="380.7" y="398.3" class="st2" width="23.9" height="20.2"/>
				<path class="st3" d="M399.5,405.1c1.8,0,3.5,0.2,5,0.5v-7.3h-23.9V418C383.3,410.8,389.5,405.1,399.5,405.1z"/>
				<path class="st2" d="M402.9,415.5h-10.2h-10.3c0,0-41-2.2-48.8,40.3h59.1h59.1C443.8,413.3,402.9,415.5,402.9,415.5z"/>
				<path class="st2" d="M441.8,340.4c0,34.8-20.3,63-49.1,63c-28.8,0-49.2-28.2-49.2-63c0-34.8,20.3-63,49.2-63
					C421.4,277.4,441.8,305.6,441.8,340.4z"/>
				<g>
					<path class="st2" d="M435.5,355.4c-1,5.5,0.9,10.4,4.4,11.1c3.5,0.7,7.1-3.3,8.1-8.7c1-5.5-0.9-10.5-4.4-11.1
						C440.2,346,436.6,349.9,435.5,355.4z"/>
					<path class="st3" d="M441.7,352c0,0,0.2,0.1,0.6,0.3c0.2,0.1,0.5,0.1,0.7,0.3c0.2,0.2,0.4,0.3,0.6,0.5c0.2,0.2,0.3,0.5,0.4,0.8
						c0.1,0.3,0.1,0.7,0.2,1c0,0.8,0,1.6-0.2,2.4c-0.1,0.8-0.4,1.6-0.7,2.4c-0.3,0.7-0.7,1.3-1.1,1.8c-0.2,0.2-0.4,0.4-0.6,0.5
						c-0.2,0-0.4,0.2-0.6,0.1c-0.4,0-0.7-0.1-0.7-0.1s0.2,0.2,0.5,0.5c0.2,0.2,0.5,0.2,0.8,0.3c0.4,0,0.8-0.1,1.2-0.2
						c0.8-0.4,1.5-1,2.1-1.9c0.6-0.8,1-1.8,1.2-2.8c0.1-0.5,0.2-1.1,0.2-1.6c0.1-0.5-0.1-1.1-0.2-1.6c-0.2-0.5-0.3-1-0.7-1.4
						c-0.2-0.2-0.3-0.4-0.4-0.6c-0.2-0.1-0.4-0.3-0.6-0.4c-0.3-0.3-0.8-0.3-1.1-0.4c-0.4-0.1-0.6,0-0.8,0
						C442,351.9,441.7,352,441.7,352z"/>
				</g>
				<g>
					<path class="st2" d="M349.7,355.4c1,5.5-0.9,10.4-4.4,11.1c-3.5,0.7-7.1-3.3-8.1-8.7c-1-5.5,0.9-10.5,4.4-11.1
						C345,346,348.7,349.9,349.7,355.4z"/>
					<path class="st3" d="M343.5,352c0,0-0.2,0.1-0.6,0.3c-0.2,0.1-0.5,0.1-0.7,0.3c-0.2,0.2-0.4,0.3-0.6,0.5
						c-0.2,0.2-0.3,0.5-0.4,0.8c-0.2,0.3-0.1,0.7-0.2,1c0,0.8,0,1.6,0.2,2.4c0.1,0.8,0.4,1.6,0.7,2.4c0.3,0.7,0.7,1.3,1.1,1.8
						c0.2,0.2,0.4,0.4,0.6,0.5c0.2,0,0.4,0.2,0.6,0.1c0.4,0,0.7-0.1,0.7-0.1s-0.1,0.2-0.5,0.5c-0.2,0.2-0.5,0.2-0.9,0.3
						c-0.4,0-0.8-0.1-1.2-0.2c-0.8-0.4-1.5-1-2.1-1.9c-0.6-0.8-1-1.8-1.2-2.8c-0.1-0.5-0.2-1.1-0.2-1.6c-0.1-0.5,0.1-1.1,0.2-1.6
						c0.2-0.5,0.3-1,0.7-1.4c0.1-0.2,0.3-0.4,0.4-0.6c0.2-0.1,0.4-0.3,0.6-0.4c0.3-0.3,0.8-0.3,1.1-0.4c0.4-0.1,0.6,0,0.8,0
						C343.2,351.9,343.5,352,343.5,352z"/>
				</g>
				<path class="st4" d="M356,329.7c0,0,6.5-12,18.9-3.2"/>
				<path class="st4" d="M427.5,329.7c0,0-6.5-12-18.9-3.2"/>
				<g>
					<path class="st5" d="M398,362.3c0,0,0.3,0.2,0.7,0.7c0.4,0.5,0.9,1.2,1.3,2.2c0.4,1,0.6,2.6-0.3,4.1c-0.5,0.7-1.1,1.3-1.9,1.7
						c-0.7,0.3-1.5,0.6-2.2,0.7c-1.5,0.2-2.9,0.2-4.2,0c-1.3-0.2-2.4-0.5-3.4-0.8c-1.9-0.7-3.1-1.4-3.1-1.4s1.4-0.2,3.3-0.2
						c1,0,2.1-0.1,3.3,0c1.2-0.1,2.4-0.1,3.5-0.3c0.6-0.1,1.1-0.2,1.5-0.4c0.4-0.2,0.8-0.4,1.1-0.7c0.5-0.5,0.7-1.5,0.7-2.4
						c0-0.9-0.1-1.7-0.2-2.3C398.1,362.6,398,362.3,398,362.3z"/>
				</g>
				<g>
					<path class="st6" d="M380.8,378.6c2.5,5.1,6.8,8.6,11.8,8.6c5,0,9.4-3.4,11.8-8.6H380.8z"/>
					<g>
						<path class="st7" d="M380.8,378.6c0.7,1.1,1.4,2.2,2.3,3.1c0.8,0.9,1.8,1.8,2.8,2.5c1,0.7,2.1,1.3,3.2,1.7
							c1.2,0.4,2.4,0.5,3.5,0.5l1.8-0.2c0.5-0.2,1.1-0.3,1.6-0.5c1.1-0.5,2.1-1,3.1-1.8c0.9-0.8,1.8-1.6,2.5-2.6
							c0.7-1,1.4-2,1.9-3.1l0.9,1.4c-3.9-0.1-7.9,0-11.8-0.3C388.7,379.2,384.7,379,380.8,378.6z M380.8,378.6
							c3.9-0.4,7.9-0.6,11.8-0.7c3.9-0.2,7.9-0.2,11.8-0.3c0.5,0,1,0.4,1,0.9c0,0.2,0,0.3-0.1,0.4c-0.6,1.2-1.2,2.4-2.1,3.5
							c-0.9,1.1-1.8,2-2.9,2.9c-1.1,0.8-2.3,1.5-3.6,2c-0.7,0.2-1.4,0.4-2.1,0.5l-2,0.2c-1.4-0.1-2.7-0.4-4-0.9
							c-1.3-0.5-2.4-1.2-3.4-2.1c-1-0.9-1.9-1.9-2.6-3C381.8,381,381.3,379.8,380.8,378.6z"/>
					</g>
				</g>
				<g>
					<path class="st8" d="M372,341.6c0,3.2-2.3,5.9-5.1,5.9c-2.8,0-5.1-2.6-5.1-5.9c0-3.2,2.3-5.9,5.1-5.9
						C369.7,335.7,372,338.3,372,341.6z"/>
					<g>
						<path class="st6" d="M365.4,339.2c0,1.3-1.1,2.4-2.4,2.4c-1.3,0-2.4-1.1-2.4-2.4c0-1.3,1.1-2.4,2.4-2.4
							C364.3,336.9,365.4,337.9,365.4,339.2z"/>
						<path class="st6" d="M365.3,342.6c0,0.6-0.5,1.1-1.1,1.1c-0.6,0-1.1-0.5-1.1-1.1c0-0.6,0.5-1.1,1.1-1.1
							C364.8,341.5,365.3,342,365.3,342.6z"/>
					</g>
				</g>
				<g>
					<path class="st8" d="M411.8,341.6c0,3.2,2.3,5.9,5,5.9c2.8,0,5.1-2.6,5.1-5.9c0-3.2-2.3-5.9-5.1-5.9
						C414.1,335.7,411.8,338.3,411.8,341.6z"/>
					<g>
						<path class="st6" d="M418.4,339.2c0,1.3,1.1,2.4,2.4,2.4s2.4-1.1,2.4-2.4c0-1.3-1.1-2.4-2.4-2.4S418.4,337.9,418.4,339.2z"/>
						<path class="st6" d="M418.5,342.6c0,0.6,0.5,1.1,1.1,1.1c0.6,0,1.1-0.5,1.1-1.1c0-0.6-0.5-1.1-1.1-1.1
							C419,341.5,418.5,342,418.5,342.6z"/>
					</g>
				</g>
				<path class="st9" d="M433.6,455.8h-78.6c13.7-10.6,3.7-35,3.7-35c2.8-1.4,5.7-2.4,8.3-3.2c0,0,25.7,31.5,51.2-0.1
					c3.4,1,7.1,2.4,10.7,4.4C428.8,421.9,414.9,445.2,433.6,455.8z"/>
				<path class="st10" d="M343.5,346.6"/>
				<path class="st10" d="M370.9,278.6"/>
				<g>
					<g>
						<path class="st11" d="M347.4,365.4c0,1.8-1.5,3.3-3.3,3.3c-1.8,0-3.3-1.5-3.3-3.3c0-1.8,1.5-3.3,3.3-3.3
							C345.9,362.1,347.4,363.6,347.4,365.4z"/>
						<path class="st12" d="M347.1,366.5c-0.5,0.5-1.2,0.8-1.9,0.8c-0.7,0-1.4-0.3-1.9-0.8c-0.5-0.5-0.8-1.2-0.8-1.9v0
							c0-0.7,0.3-1.4,0.8-1.9c0.3-0.3,0.7-0.5,1.1-0.7c-0.1,0-0.3,0-0.4,0c-1.8,0-3.3,1.5-3.3,3.3c0,1.8,1.5,3.3,3.3,3.3
							c1.5,0,2.8-1,3.2-2.4C347.2,366.4,347.1,366.5,347.1,366.5z"/>
					</g>
					<path class="st6" d="M346.5,364.4c0,0.7-0.5,1.2-1.2,1.2c-0.7,0-1.2-0.5-1.2-1.2c0-0.7,0.6-1.2,1.2-1.2
						C345.9,363.2,346.5,363.8,346.5,364.4z"/>
				</g>
				<g>
					<g>
						<path class="st11" d="M443.5,365.4c0,1.8-1.5,3.3-3.3,3.3c-1.8,0-3.3-1.5-3.3-3.3c0-1.8,1.5-3.3,3.3-3.3
							C442.1,362.1,443.5,363.6,443.5,365.4z"/>
						<path class="st12" d="M443.3,366.5c-0.5,0.5-1.2,0.8-1.9,0.8c-0.7,0-1.4-0.3-1.9-0.8c-0.5-0.5-0.8-1.2-0.8-1.9v0
							c0-0.7,0.3-1.4,0.8-1.9c0.3-0.3,0.7-0.5,1.1-0.7c-0.1,0-0.3,0-0.4,0c-1.8,0-3.3,1.5-3.3,3.3c0,1.8,1.5,3.3,3.3,3.3
							c1.5,0,2.8-1,3.2-2.4C443.4,366.4,443.3,366.5,443.3,366.5z"/>
					</g>
					<path class="st6" d="M442.7,364.4c0,0.7-0.5,1.2-1.2,1.2s-1.2-0.5-1.2-1.2c0-0.7,0.6-1.2,1.2-1.2S442.7,363.8,442.7,364.4z"/>
				</g>
				<path class="st1" d="M388.5,284.8c0,0,7.4,26.6,47.7,41.8c0,0,5.1,4.1,4.4,22c0,0,2.2-4.3,5.9,0c0,0,7.9-41.3-6.3-63.8
					c0,0-17.2-24-46.1-20.3C394.1,264.5,384.6,269.5,388.5,284.8z"/>
				<path class="st1" d="M397.2,284.8c0,0-7.4,26.6-47.7,41.8c0,0-5.1,4.1-4.4,22c0,0-2.2-4.3-5.9,0c0,0-7.9-41.3,6.3-63.8
					c0,0,17.2-24,46.1-20.3C391.5,264.5,401,269.5,397.2,284.8z"/>
			</g>
		</g>
		<ellipse class="st2" cx="391.7" cy="350.6" rx="44.7" ry="37.8"/>
	</g>
	<g>
		<g>
			<g>
				<defs>
					<path id="SVGID_3_" d="M793.1,343.6c0,61.3-49.7,111-111,111s-111-49.7-111-111c0-61.3,49.7-111,111-111
						S793.1,282.3,793.1,343.6z"/>
				</defs>
				<use xlink:href="#SVGID_3_"  style="overflow:visible;fill:#EEB033;"/>
				<clipPath id="SVGID_4_">
					<use xlink:href="#SVGID_3_"  style="overflow:visible;"/>
				</clipPath>
				<g class="st13">
					<path class="st2" d="M694.1,414.2h-12h-12c0,0-61.7,8.4-64.8,34.9v5.4h76.8H759v-5.4C755.8,422.6,694.1,414.2,694.1,414.2z"/>
					<g>
						<path class="st2" d="M727.5,350.9c-1,5.5,0.9,10.4,4.4,11.1c3.4,0.6,7.1-3.3,8.1-8.7c1-5.5-0.9-10.5-4.4-11.1
							C732.1,341.5,728.5,345.4,727.5,350.9z"/>
						<path class="st3" d="M733.7,347.5c0,0,0.2,0.1,0.6,0.3c0.2,0.1,0.5,0.1,0.7,0.3c0.2,0.2,0.4,0.3,0.6,0.5
							c0.2,0.2,0.3,0.5,0.4,0.8c0.2,0.3,0.1,0.7,0.2,1c0,0.7,0,1.6-0.2,2.4c-0.1,0.8-0.4,1.6-0.7,2.4c-0.3,0.7-0.7,1.3-1.1,1.8
							c-0.2,0.2-0.4,0.4-0.6,0.5c-0.2,0-0.5,0.2-0.6,0.1c-0.4-0.1-0.7-0.1-0.7-0.1s0.1,0.2,0.5,0.5c0.2,0.2,0.5,0.2,0.8,0.3
							c0.4,0,0.8-0.1,1.2-0.2c0.8-0.4,1.5-1,2.1-1.9c0.6-0.8,1-1.8,1.2-2.9c0.1-0.5,0.2-1,0.2-1.6c0.1-0.5-0.1-1.1-0.2-1.6
							c-0.2-0.5-0.3-1-0.6-1.4c-0.2-0.2-0.3-0.4-0.5-0.6c-0.2-0.1-0.4-0.3-0.6-0.4c-0.3-0.3-0.8-0.3-1.1-0.4c-0.3-0.1-0.6,0-0.8,0
							C733.9,347.4,733.7,347.5,733.7,347.5z"/>
					</g>
					<g>
						<path class="st2" d="M638.5,350.9c1,5.5-0.9,10.4-4.4,11.1c-3.4,0.6-7.1-3.3-8.1-8.7c-1-5.5,0.9-10.5,4.4-11.1
							C633.9,341.5,637.5,345.4,638.5,350.9z"/>
						<path class="st3" d="M632.3,347.5c0,0-0.2,0.1-0.6,0.3c-0.2,0.1-0.5,0.1-0.7,0.3c-0.2,0.2-0.4,0.3-0.6,0.5
							c-0.2,0.2-0.3,0.5-0.4,0.8c-0.1,0.3-0.1,0.7-0.2,1c0,0.7,0,1.6,0.2,2.4c0.1,0.8,0.4,1.6,0.7,2.4c0.3,0.7,0.7,1.3,1.1,1.8
							c0.2,0.2,0.4,0.4,0.6,0.5c0.2,0,0.4,0.2,0.6,0.1c0.4-0.1,0.7-0.1,0.7-0.1s-0.2,0.2-0.5,0.5c-0.2,0.2-0.5,0.2-0.9,0.3
							c-0.3,0-0.8-0.1-1.2-0.2c-0.8-0.4-1.5-1-2.1-1.9c-0.6-0.8-1-1.8-1.2-2.9c-0.1-0.5-0.2-1-0.2-1.6c-0.1-0.5,0.1-1.1,0.2-1.6
							c0.2-0.5,0.3-1,0.6-1.4c0.2-0.2,0.3-0.4,0.5-0.6c0.2-0.1,0.4-0.3,0.6-0.4c0.3-0.3,0.8-0.3,1.1-0.4c0.3-0.1,0.6,0,0.8,0
							C632.1,347.4,632.3,347.5,632.3,347.5z"/>
					</g>
					<rect x="670.2" y="398.4" class="st2" width="23.9" height="20.2"/>
					<path class="st3" d="M694.1,400.5v-2.1h-23.9V414C674.2,405.4,684.5,400.9,694.1,400.5z"/>
					<path class="st2" d="M733.5,335.6c0,35.8-21.7,64.8-51.3,64.8c-29.6,0-50.8-30.1-50.8-65.9c-0.5-47.5,21.1-63.7,50.8-63.7
						C711.8,270.8,736.1,285.4,733.5,335.6z"/>
					<path class="st14" d="M697.5,414.7c12.8,2.2,58.8,11.6,61.5,34.4v5.4H605.4v-5.4c2.7-22.8,48.7-32.2,61.5-34.4l15.3,19.9
						L697.5,414.7z"/>
					<path class="st4" d="M646.4,325.3c0,0,6.5-12,18.9-3.2"/>
					<path class="st4" d="M717.9,325.3c0,0-6.5-12-18.9-3.2"/>
					<g>
						<path class="st5" d="M688.4,357.9c0,0,0.3,0.2,0.7,0.7c0.4,0.5,0.9,1.2,1.3,2.2c0.4,1,0.6,2.6-0.3,4.1
							c-0.5,0.7-1.1,1.3-1.9,1.7c-0.7,0.3-1.5,0.6-2.2,0.7c-1.5,0.2-2.9,0.2-4.2,0c-1.3-0.2-2.4-0.5-3.4-0.8
							c-1.9-0.7-3.1-1.4-3.1-1.4s1.4-0.2,3.3-0.2c1,0,2.1-0.1,3.3,0c1.2-0.1,2.4-0.1,3.5-0.3c0.6-0.1,1.1-0.2,1.5-0.4
							c0.4-0.2,0.8-0.4,1.1-0.7c0.5-0.5,0.7-1.5,0.7-2.4c0-0.9-0.1-1.7-0.2-2.3C688.5,358.2,688.4,357.9,688.4,357.9z"/>
					</g>
					<g>
						<path class="st6" d="M668.1,377.1c3,5.5,8.3,9.2,14.5,9.2c6.1,0,11.5-3.7,14.4-9.2H668.1z"/>
						<g>
							<path class="st15" d="M668.1,377.1c0.9,1.2,1.8,2.4,2.8,3.4c1.1,1,2.3,1.9,3.5,2.7c1.3,0.7,2.6,1.3,3.9,1.7l2.1,0.4l2.1,0.1
								l2.2-0.2l2-0.5c1.3-0.5,2.6-1.1,3.7-1.9c1.2-0.8,2.2-1.7,3.1-2.8c0.9-1.1,1.7-2.2,2.4-3.4l1,1.7
								C687.4,378.1,677.7,377.9,668.1,377.1z M668.1,377.1c9.6-0.8,19.3-1,28.9-1.1c0.6,0,1.1,0.5,1.1,1.1c0,0.2-0.1,0.4-0.1,0.6
								c-0.8,1.4-1.7,2.7-2.7,3.9c-1.1,1.2-2.3,2.2-3.6,3.1l-2.1,1.2l-2.3,0.8l-2.4,0.5l-2.3,0.1l-2.4-0.3l-2.3-0.6
								c-1.5-0.6-2.9-1.3-4.2-2.2c-1.2-0.9-2.3-2-3.3-3.2l-1.3-1.9L668.1,377.1z"/>
						</g>
					</g>
					<g>
						<path class="st8" d="M662.4,337.1c0,3.2-2.3,5.9-5,5.9c-2.8,0-5.1-2.6-5.1-5.9c0-3.2,2.3-5.9,5.1-5.9
							C660.1,331.2,662.4,333.9,662.4,337.1z"/>
						<g>
							<path class="st6" d="M655.8,334.7c0,1.3-1.1,2.4-2.4,2.4c-1.3,0-2.4-1.1-2.4-2.4c0-1.3,1.1-2.4,2.4-2.4
								C654.7,332.4,655.8,333.4,655.8,334.7z"/>
							<ellipse class="st6" cx="654.5" cy="338.2" rx="1.1" ry="1.1"/>
						</g>
					</g>
					<g>
						<path class="st8" d="M702.2,337.1c0,3.2,2.3,5.9,5.1,5.9c2.8,0,5.1-2.6,5.1-5.9c0-3.2-2.3-5.9-5.1-5.9
							C704.4,331.2,702.2,333.9,702.2,337.1z"/>
						<g>
							<path class="st6" d="M708.8,334.7c0,1.3,1.1,2.4,2.4,2.4c1.3,0,2.4-1.1,2.4-2.4c0-1.3-1.1-2.4-2.4-2.4
								C709.8,332.4,708.8,333.4,708.8,334.7z"/>
							<path class="st6" d="M708.9,338.2c0,0.6,0.5,1.1,1.1,1.1c0.6,0,1.1-0.5,1.1-1.1c0-0.6-0.5-1.1-1.1-1.1
								C709.4,337.1,708.9,337.6,708.9,338.2z"/>
						</g>
					</g>
					<path class="st16" d="M642.7,302.5c0,0,36.6,14.6,73.2-12.4C715.9,290.1,652.4,268.9,642.7,302.5z"/>
					<path class="st17" d="M711.3,293.3c-1.8,1-71.6,24-85.1-7.4c0,0,2.6,2.5,8.3,0.7c0,0-10.5-1.3-8.4-11.5c0,0,4,3.1,8.4,3.5
						c0,0-6.5-3-5.5-12.1c0,0,6.7,6.5,14.3,4.1c0,0,31.6-25.3,62.3-7.2C705.6,263.5,736.2,279.1,711.3,293.3z"/>
					<path class="st17" d="M662.1,292.8c0,0-14.3-2-17.2,22.1c0,0,0.2,10.2-5.3,16.3c0,0-5.4,3.5-2.2,20.9l-3.7-9.9
						c0,0-4.6-9.8-2.5-35.7c0,0,4.4-35.6,27-36.3L662.1,292.8z"/>
					<path class="st17" d="M707.2,292.8c0,0,14.3-2,17.2,22.1c0,0-0.2,10.2,5.3,16.3c0,0,5.4,3.5,2.2,20.9l3.6-9.9
						c0,0,4.7-9.8,2.5-35.7c0,0-4.4-35.6-27-36.3L707.2,292.8z"/>
				</g>
			</g>
		</g>
		<ellipse class="st2" cx="682.6" cy="348.3" rx="44.7" ry="40.1"/>
	</g>
	<g>
		<g>
			<g>
				<defs>
					<path id="SVGID_5_" d="M653.6,388.2c0,61.3-49.7,111-111,111c-61.3,0-111-49.7-111-111s49.7-111,111-111
						C603.9,277.3,653.6,326.9,653.6,388.2z"/>
				</defs>
				<use xlink:href="#SVGID_5_"  style="overflow:visible;fill:#17A99E;"/>
				<clipPath id="SVGID_6_">
					<use xlink:href="#SVGID_5_"  style="overflow:visible;"/>
				</clipPath>
				<g class="st18">
					<path class="st2" d="M554.5,458.9h-12h-12c0,0-61.7,8.4-64.8,34.9v5.4h76.8h76.8v-5.4C616.2,467.3,554.5,458.9,554.5,458.9z"/>
					<g>
						<path class="st2" d="M587.9,395.6c-1,5.5,0.9,10.4,4.4,11.1c3.5,0.7,7.1-3.3,8.1-8.7c1-5.5-0.9-10.4-4.4-11.1
							C592.6,386.2,588.9,390.1,587.9,395.6z"/>
						<path class="st3" d="M594.1,392.2c0,0,0.2,0.1,0.6,0.3c0.2,0.1,0.5,0.1,0.7,0.3c0.2,0.2,0.4,0.3,0.5,0.5
							c0.2,0.2,0.3,0.5,0.4,0.8c0.1,0.3,0.1,0.7,0.2,1c0,0.7,0,1.6-0.2,2.4c-0.1,0.8-0.4,1.7-0.7,2.4c-0.3,0.7-0.7,1.3-1.1,1.8
							c-0.2,0.2-0.4,0.4-0.6,0.5c-0.2,0-0.5,0.2-0.6,0.1c-0.4,0-0.7-0.1-0.7-0.1s0.1,0.2,0.5,0.5c0.2,0.2,0.5,0.2,0.9,0.3
							c0.4,0,0.8-0.1,1.2-0.2c0.8-0.4,1.5-1,2.1-1.9c0.6-0.8,1-1.8,1.2-2.9c0.1-0.5,0.2-1,0.2-1.6c0.1-0.5-0.1-1.1-0.2-1.6
							c-0.2-0.5-0.3-1-0.6-1.4c-0.1-0.2-0.3-0.4-0.4-0.6c-0.2-0.1-0.4-0.3-0.6-0.4c-0.3-0.3-0.8-0.3-1.1-0.4c-0.3-0.1-0.6,0-0.8,0
							C594.4,392.1,594.1,392.2,594.1,392.2z"/>
					</g>
					<g>
						<path class="st2" d="M499,395.6c1,5.5-0.9,10.4-4.4,11.1c-3.4,0.7-7.1-3.3-8.1-8.7c-1-5.5,0.9-10.4,4.4-11.1
							C494.3,386.2,497.9,390.1,499,395.6z"/>
						<path class="st3" d="M492.8,392.2c0,0-0.2,0.1-0.6,0.3c-0.2,0.1-0.5,0.1-0.7,0.3c-0.2,0.2-0.4,0.3-0.6,0.5
							c-0.2,0.2-0.3,0.5-0.4,0.8c-0.1,0.3-0.1,0.7-0.2,1c0,0.7,0,1.6,0.2,2.4c0.1,0.8,0.4,1.7,0.7,2.4c0.3,0.7,0.7,1.3,1.1,1.8
							c0.2,0.2,0.4,0.4,0.6,0.5c0.2,0,0.5,0.2,0.6,0.1c0.4,0,0.7-0.1,0.7-0.1s-0.1,0.2-0.5,0.5c-0.2,0.2-0.5,0.2-0.8,0.3
							c-0.4,0-0.8-0.1-1.2-0.2c-0.8-0.4-1.5-1-2.1-1.9c-0.6-0.8-1-1.8-1.2-2.9c-0.1-0.5-0.2-1-0.2-1.6c-0.1-0.5,0.1-1.1,0.2-1.6
							c0.2-0.5,0.3-1,0.6-1.4c0.2-0.2,0.3-0.4,0.4-0.6c0.2-0.1,0.4-0.3,0.6-0.4c0.3-0.3,0.8-0.3,1.1-0.4c0.4-0.1,0.6,0,0.8,0
							C492.5,392.1,492.8,392.2,492.8,392.2z"/>
					</g>
					<rect x="530.6" y="443.1" class="st2" width="23.9" height="20.2"/>
					<path class="st3" d="M554.5,445.2v-2.1h-23.9v15.5C534.6,450.1,544.9,445.5,554.5,445.2z"/>
					<path class="st2" d="M593.9,380.2c0,35.8-21.7,64.8-51.3,64.8c-29.6,0-50.8-30.1-50.8-65.9c-0.5-47.5,21.1-63.7,50.8-63.7
						C572.2,315.4,596.6,330,593.9,380.2z"/>
					<path class="st19" d="M557.9,459.4c-2.3,5.6-7.4,9.9-15.3,9.9c-7.9,0-13-4.3-15.3-9.9c-12.8,2.2-58.8,11.6-61.5,34.4v5.4h153.6
						v-5.4C616.7,471,570.7,461.6,557.9,459.4z"/>
					<g>
						<path class="st20" d="M557.9,459.4c-2.3,5.6-7.4,9.9-15.3,9.9c-7.9,0-13-4.3-15.3-9.9c-1.3,0.2-3,0.5-5,0.9
							c2.5,8.7,10.7,15.2,20.1,15.2h0.2c9.4,0,17.5-6.5,20.1-15.2C560.8,459.9,559.2,459.6,557.9,459.4z"/>
					</g>
					<path class="st4" d="M506.8,369.9c0,0,6.5-12,18.9-3.2"/>
					<path class="st4" d="M578.3,369.9c0,0-6.5-12-18.9-3.2"/>
					<g>
						<path class="st5" d="M548.8,402.5c0,0,0.3,0.2,0.7,0.7c0.4,0.5,0.9,1.2,1.3,2.2c0.4,1,0.6,2.6-0.3,4.1
							c-0.5,0.7-1.1,1.3-1.9,1.7c-0.7,0.3-1.5,0.6-2.2,0.7c-1.5,0.2-2.9,0.2-4.2,0c-1.3-0.2-2.4-0.5-3.4-0.8
							c-1.9-0.7-3.1-1.4-3.1-1.4s1.4-0.2,3.3-0.2c1,0,2.1-0.1,3.3,0c1.2-0.1,2.4-0.1,3.5-0.3c0.5-0.1,1.1-0.2,1.5-0.4
							c0.4-0.2,0.8-0.4,1.1-0.7c0.5-0.5,0.7-1.5,0.7-2.4c0-0.9-0.1-1.7-0.2-2.3C548.9,402.8,548.8,402.5,548.8,402.5z"/>
					</g>
					<g>
						<path class="st6" d="M528.5,421.7c3,5.5,8.3,9.2,14.5,9.2c6.1,0,11.4-3.7,14.4-9.2H528.5z"/>
						<g>
							<path class="st15" d="M528.5,421.7c0.9,1.2,1.8,2.4,2.8,3.4c1.1,1,2.2,1.9,3.5,2.7l1.9,1l2,0.7l2.1,0.4l2.1,0.1l2.2-0.2
								l2-0.5c1.3-0.5,2.6-1.1,3.7-1.8c1.1-0.8,2.2-1.7,3.1-2.8c0.9-1.1,1.7-2.2,2.4-3.4l1,1.7C547.8,422.8,538.2,422.5,528.5,421.7
								z M528.5,421.7c9.6-0.8,19.3-1,28.9-1.1c0.6,0,1.1,0.5,1.1,1.1c0,0.2-0.1,0.4-0.1,0.6c-0.8,1.4-1.7,2.7-2.7,3.9
								c-1.1,1.2-2.3,2.2-3.6,3.1l-2.1,1.2l-2.3,0.8l-2.4,0.5l-2.3,0.1l-2.4-0.3l-2.3-0.6l-2.2-0.9l-2-1.2c-1.2-0.9-2.3-2-3.3-3.2
								l-1.3-1.9L528.5,421.7z"/>
						</g>
					</g>
					<g>
						<path class="st8" d="M522.8,381.8c0,3.2-2.3,5.9-5.1,5.9c-2.8,0-5.1-2.6-5.1-5.9c0-3.2,2.3-5.9,5.1-5.9
							C520.5,375.9,522.8,378.5,522.8,381.8z"/>
						<g>
							<path class="st6" d="M516.2,379.4c0,1.3-1.1,2.4-2.4,2.4c-1.3,0-2.4-1.1-2.4-2.4c0-1.3,1.1-2.4,2.4-2.4
								C515.1,377,516.2,378.1,516.2,379.4z"/>
							<path class="st6" d="M516.1,382.8c0,0.6-0.5,1.1-1.1,1.1c-0.6,0-1.1-0.5-1.1-1.1c0-0.6,0.5-1.1,1.1-1.1
								C515.6,381.7,516.1,382.2,516.1,382.8z"/>
						</g>
					</g>
					<g>
						<path class="st8" d="M562.6,381.8c0,3.2,2.3,5.9,5.1,5.9c2.8,0,5.1-2.6,5.1-5.9c0-3.2-2.3-5.9-5.1-5.9
							C564.9,375.9,562.6,378.5,562.6,381.8z"/>
						<g>
							<path class="st6" d="M569.2,379.4c0,1.3,1.1,2.4,2.4,2.4c1.3,0,2.3-1.1,2.3-2.4c0-1.3-1-2.4-2.3-2.4
								C570.3,377,569.2,378.1,569.2,379.4z"/>
							<path class="st6" d="M569.3,382.8c0,0.6,0.5,1.1,1.1,1.1c0.6,0,1.1-0.5,1.1-1.1c0-0.6-0.5-1.1-1.1-1.1
								C569.8,381.7,569.3,382.2,569.3,382.8z"/>
						</g>
					</g>
					<path class="st21" d="M584.8,308.4c0,0,9.2,8.1,18.7-4c0,0-1.1,11.6-7.9,15.9c0,0,6.4,6.3,14.1-0.2c0,0,2.2,8.1-6.6,15.8
						c0,0,1.5,22.4-4.5,44.3l-2.6,6.6l-2.4,0.8l-1.3,9.1h-2.5l2.7-30c0,0,2.5-35.6-30-36.7c0,0-14.5-2.6-17,8c0,0-0.5-11-19.8-8
						c0,0-9.4-14.6,4.9-27.5C530.6,302.6,553.6,284.9,584.8,308.4z"/>
					<path class="st21" d="M501.8,308.4c31.2-23.5,62.1-10.6,62.1-10.6c14.4,12.9-3,32.3-3,32.3c-13.6-1.5-15.3,8-15.3,8
						c-0.2-11.5-21.6-8-21.6-8c-26.9,1.3-27.9,36.7-27.9,36.7l0.6,30h-2.5l-1.3-9.1l-2.4-0.8C490.5,386.8,474.5,329.3,501.8,308.4z"
						/>
				</g>
			</g>
		</g>
		<circle class="st2" cx="542.9" cy="389.5" r="44.7"/>
	</g>
</g>
</svg>
