<?xml version="1.0" encoding="utf-8"?>
<!-- Generator: Adobe Illustrator 24.0.1, SVG Export Plug-In . SVG Version: 6.00 Build 0)  -->
<svg version="1.1" id="圖層_1" xmlns="http://www.w3.org/2000/svg" xmlns:xlink="http://www.w3.org/1999/xlink" x="0px" y="0px"
	 viewBox="0 0 1080 790" style="enable-background:new 0 0 1080 790;" xml:space="preserve">
<style type="text/css">
	.st0{fill:none;}
	.st1{fill:#657991;}
	.st2{fill:#FFFFFF;}
	.st3{fill:#90B8DA;}
	.st4{fill:#F0F3F6;}
	.st5{fill:#596B7F;}
	.st6{fill:#B7D2E7;}
	.st7{fill:#E04540;}
</style>
<g>
	<g>
		<path class="st0" d="M540,133.9c4.4,0,7.9-3.6,7.9-7.9c0-4.4-3.6-7.9-7.9-7.9s-7.9,3.6-7.9,7.9C532.1,130.4,535.6,133.9,540,133.9
			z"/>
		<path class="st1" d="M705.6,139H579.1c0.8,2.9,1.3,6,1.5,9.2h73.4c8,0,14.4,6.4,14.4,14.4v0.2h14.4c8,0,14.5,6.5,14.5,14.5V635
			c0,8-6.5,14.5-14.5,14.5H397.3c-8,0-14.5-6.5-14.5-14.5V177.3c0-8,6.5-14.5,14.5-14.5h14.4v-0.2c0-8,6.4-14.4,14.4-14.4h73.4
			c0.1-3.2,0.6-6.3,1.5-9.2H374.4c-11.1,0-20.1,9-20.1,20.1v494.2c0,11.1,9,20.1,20.1,20.1h331.1c11.1,0,20.1-9,20.1-20.1V159.1
			C725.6,148,716.6,139,705.6,139z"/>
		<path class="st2" d="M664,185H416c-2.4,0-4.3-1.9-4.3-4.3v-17.8h-14.4c-8,0-14.5,6.5-14.5,14.5V635c0,8,6.5,14.5,14.5,14.5h285.5
			c8,0,14.5-6.5,14.5-14.5V177.3c0-8-6.5-14.5-14.5-14.5h-14.4v17.8C668.4,183,666.4,185,664,185z"/>
		<path class="st3" d="M426.1,148.2c-8,0-14.4,6.4-14.4,14.4v0.2v17.8c0,2.4,1.9,4.3,4.3,4.3h248c2.4,0,4.3-1.9,4.3-4.3v-17.8v-0.2
			c0-8-6.4-14.4-14.4-14.4h-73.4c-0.1-3.2-0.6-6.3-1.5-9.2c-4.8-17.1-20.5-29.7-39.1-29.7c-18.6,0-34.3,12.6-39.1,29.7
			c-0.8,2.9-1.3,6-1.5,9.2H426.1z M540,118c4.4,0,7.9,3.6,7.9,7.9c0,4.4-3.6,7.9-7.9,7.9s-7.9-3.6-7.9-7.9
			C532.1,121.6,535.6,118,540,118z"/>
		<path class="st4" d="M416,190.1h248c2.4,0,4.3-1.9,4.3-4.3v-5.1c0,2.4-1.9,4.3-4.3,4.3H416c-2.4,0-4.3-1.9-4.3-4.3v5.1
			C411.6,188.2,413.6,190.1,416,190.1z"/>
		<path class="st5" d="M682.7,649.5H397.3c-8,0-14.5-6.5-14.5-14.5V200.8l-28.4-41.6v494c0,11.1,9,20.1,20.1,20.1h331.1c0,0,0,0,0,0
			l0-0.1l-17.1-25C686.8,649,684.8,649.5,682.7,649.5z"/>
		<path class="st4" d="M397.3,649.5h285.5c2.1,0,4-0.4,5.8-1.2l0,0L382.8,200.8V635C382.8,643,389.3,649.5,397.3,649.5z"/>
		<g>
			<path class="st6" d="M654.6,148.2c-1,0.9-1.9,1.9-2.9,2.8c-11.5,11.3-23.1,22.5-34.5,33.9h9.5c9.8-9.8,19.5-19.8,29.2-29.7
				c1.7-1.7,3.4-3.5,5.1-5.2C659.1,149,657,148.3,654.6,148.2z"/>
			<path class="st6" d="M428.6,185c12.3-12.2,24.6-24.5,36.8-36.8h-6.6c-12.3,12.2-24.5,24.5-36.7,36.8H428.6z"/>
			<path class="st6" d="M618.5,169.3l21.1-21.1h-19.1l-11.6,11.5c-8.5,8.4-17.5,16.7-26.2,25.2h20.7
				C608.4,179.7,613.4,174.4,618.5,169.3z"/>
			<path class="st6" d="M488.8,148.2h-15.2c-12.6,12.2-25.3,24.4-37.8,36.8h17.2C465,172.8,476.9,160.4,488.8,148.2z"/>
		</g>
	</g>
	<path class="st3" d="M447.9,227.2h-21c-4.6,0-8.3,3.7-8.3,8.3v21c0,4.6,3.7,8.3,8.3,8.3h21c4.6,0,8.3-3.7,8.3-8.3v-21
		C456.2,230.9,452.5,227.2,447.9,227.2z M451.6,251.9c0,4.6-3.7,8.3-8.3,8.3h-11.8c-4.6,0-8.3-3.7-8.3-8.3v-11.8
		c0-4.6,3.7-8.3,8.3-8.3h11.8c4.6,0,8.3,3.7,8.3,8.3V251.9z"/>
	<g>
		<path class="st3" d="M660.1,235.3H506.1c-1.1,0-2.1-0.9-2.1-2.1l0,0c0-1.1,0.9-2.1,2.1-2.1h153.9c1.1,0,2.1,0.9,2.1,2.1l0,0
			C662.1,234.4,661.2,235.3,660.1,235.3z"/>
		<path class="st3" d="M660.1,248.1H474.4c-1.1,0-2.1-0.9-2.1-2.1l0,0c0-1.1,0.9-2.1,2.1-2.1h185.6c1.1,0,2.1,0.9,2.1,2.1l0,0
			C662.1,247.2,661.2,248.1,660.1,248.1z"/>
		<path class="st3" d="M627.5,260.9h-153c-1.1,0-2.1-0.9-2.1-2.1l0,0c0-1.1,0.9-2.1,2.1-2.1h153c1.1,0,2.1,0.9,2.1,2.1l0,0
			C629.5,260,628.6,260.9,627.5,260.9z"/>
	</g>
	<path class="st3" d="M447.9,311.2h-21c-4.6,0-8.3,3.7-8.3,8.3v21c0,4.6,3.7,8.3,8.3,8.3h21c4.6,0,8.3-3.7,8.3-8.3v-21
		C456.2,314.9,452.5,311.2,447.9,311.2z M451.6,335.9c0,4.6-3.7,8.3-8.3,8.3h-11.8c-4.6,0-8.3-3.7-8.3-8.3v-11.8
		c0-4.6,3.7-8.3,8.3-8.3h11.8c4.6,0,8.3,3.7,8.3,8.3V335.9z"/>
	<g>
		<path class="st3" d="M660.1,319.2H506.1c-1.1,0-2.1-0.9-2.1-2.1l0,0c0-1.1,0.9-2.1,2.1-2.1h153.9c1.1,0,2.1,0.9,2.1,2.1l0,0
			C662.1,318.3,661.2,319.2,660.1,319.2z"/>
		<path class="st3" d="M660.1,332H474.4c-1.1,0-2.1-0.9-2.1-2.1l0,0c0-1.1,0.9-2.1,2.1-2.1h185.6c1.1,0,2.1,0.9,2.1,2.1l0,0
			C662.1,331.1,661.2,332,660.1,332z"/>
		<path class="st3" d="M627.5,344.8h-153c-1.1,0-2.1-0.9-2.1-2.1l0,0c0-1.1,0.9-2.1,2.1-2.1h153c1.1,0,2.1,0.9,2.1,2.1l0,0
			C629.5,343.9,628.6,344.8,627.5,344.8z"/>
	</g>
	<path class="st3" d="M447.9,395.1h-21c-4.6,0-8.3,3.7-8.3,8.3v21c0,4.6,3.7,8.3,8.3,8.3h21c4.6,0,8.3-3.7,8.3-8.3v-21
		C456.2,398.8,452.5,395.1,447.9,395.1z M451.6,419.8c0,4.6-3.7,8.3-8.3,8.3h-11.8c-4.6,0-8.3-3.7-8.3-8.3V408
		c0-4.6,3.7-8.3,8.3-8.3h11.8c4.6,0,8.3,3.7,8.3,8.3V419.8z"/>
	<g>
		<path class="st3" d="M660.1,403.2H506.1c-1.1,0-2.1-0.9-2.1-2.1l0,0c0-1.1,0.9-2.1,2.1-2.1h153.9c1.1,0,2.1,0.9,2.1,2.1l0,0
			C662.1,402.3,661.2,403.2,660.1,403.2z"/>
		<path class="st3" d="M660.1,416H474.4c-1.1,0-2.1-0.9-2.1-2.1l0,0c0-1.1,0.9-2.1,2.1-2.1h185.6c1.1,0,2.1,0.9,2.1,2.1l0,0
			C662.1,415.1,661.2,416,660.1,416z"/>
		<path class="st3" d="M627.5,428.8h-153c-1.1,0-2.1-0.9-2.1-2.1l0,0c0-1.1,0.9-2.1,2.1-2.1h153c1.1,0,2.1,0.9,2.1,2.1l0,0
			C629.5,427.9,628.6,428.8,627.5,428.8z"/>
	</g>
	<path class="st3" d="M447.9,479.1h-21c-4.6,0-8.3,3.7-8.3,8.3v21c0,4.6,3.7,8.3,8.3,8.3h21c4.6,0,8.3-3.7,8.3-8.3v-21
		C456.2,482.8,452.5,479.1,447.9,479.1z M451.6,503.8c0,4.6-3.7,8.3-8.3,8.3h-11.8c-4.6,0-8.3-3.7-8.3-8.3V492
		c0-4.6,3.7-8.3,8.3-8.3h11.8c4.6,0,8.3,3.7,8.3,8.3V503.8z"/>
	<g>
		<path class="st3" d="M660.1,487.1H506.1c-1.1,0-2.1-0.9-2.1-2.1l0,0c0-1.1,0.9-2.1,2.1-2.1h153.9c1.1,0,2.1,0.9,2.1,2.1l0,0
			C662.1,486.2,661.2,487.1,660.1,487.1z"/>
		<path class="st3" d="M660.1,499.9H474.4c-1.1,0-2.1-0.9-2.1-2.1l0,0c0-1.1,0.9-2.1,2.1-2.1h185.6c1.1,0,2.1,0.9,2.1,2.1l0,0
			C662.1,499,661.2,499.9,660.1,499.9z"/>
		<path class="st3" d="M627.5,512.7h-153c-1.1,0-2.1-0.9-2.1-2.1l0,0c0-1.1,0.9-2.1,2.1-2.1h153c1.1,0,2.1,0.9,2.1,2.1l0,0
			C629.5,511.8,628.6,512.7,627.5,512.7z"/>
	</g>
	<path class="st3" d="M447.9,563h-21c-4.6,0-8.3,3.7-8.3,8.3v21c0,4.6,3.7,8.3,8.3,8.3h21c4.6,0,8.3-3.7,8.3-8.3v-21
		C456.2,566.7,452.5,563,447.9,563z M451.6,587.7c0,4.6-3.7,8.3-8.3,8.3h-11.8c-4.6,0-8.3-3.7-8.3-8.3v-11.8c0-4.6,3.7-8.3,8.3-8.3
		h11.8c4.6,0,8.3,3.7,8.3,8.3V587.7z"/>
	<g>
		<path class="st3" d="M660.1,571.1H506.1c-1.1,0-2.1-0.9-2.1-2.1l0,0c0-1.1,0.9-2.1,2.1-2.1h153.9c1.1,0,2.1,0.9,2.1,2.1l0,0
			C662.1,570.2,661.2,571.1,660.1,571.1z"/>
		<path class="st3" d="M660.1,583.9H474.4c-1.1,0-2.1-0.9-2.1-2.1l0,0c0-1.1,0.9-2.1,2.1-2.1h185.6c1.1,0,2.1,0.9,2.1,2.1l0,0
			C662.1,583,661.2,583.9,660.1,583.9z"/>
		<path class="st3" d="M627.5,596.7h-153c-1.1,0-2.1-0.9-2.1-2.1l0,0c0-1.1,0.9-2.1,2.1-2.1h153c1.1,0,2.1,0.9,2.1,2.1l0,0
			C629.5,595.7,628.6,596.7,627.5,596.7z"/>
	</g>
	<path class="st7" d="M455,225.3c-7.8,5.7-14.4,14.7-17.7,24.2c-3.1-3-6.3-5.7-11.1-5c-2.2,0.3-2.2,4,0,4.4c4.4,0.8,7.7,6,9.8,9.6
		c1.5,2.4,5.3,2.6,6.7,0c5.3-9.5,9-19.8,15.8-28.5C460.5,227.5,458,223.1,455,225.3z"/>
	<path class="st7" d="M455,308.9c-7.8,5.7-14.4,14.7-17.7,24.2c-3.1-3-6.3-5.7-11.1-5c-2.2,0.3-2.2,4,0,4.4c4.4,0.8,7.7,6,9.8,9.6
		c1.5,2.4,5.3,2.6,6.7,0c5.3-9.5,9-19.8,15.8-28.5C460.5,311.1,458,306.7,455,308.9z"/>
	<path class="st7" d="M455,392.5c-7.8,5.7-14.4,14.7-17.7,24.2c-3.1-3-6.3-5.7-11.1-5c-2.2,0.3-2.2,4,0,4.4c4.4,0.8,7.7,6,9.8,9.6
		c1.5,2.4,5.3,2.6,6.7,0c5.3-9.5,9-19.8,15.8-28.5C460.5,394.8,458,390.3,455,392.5z"/>
	<path class="st7" d="M455,476.8c-7.8,5.7-14.4,14.7-17.7,24.2c-3.1-3-6.3-5.7-11.1-5c-2.2,0.3-2.2,4,0,4.4c4.4,0.8,7.7,6,9.8,9.6
		c1.5,2.4,5.3,2.6,6.7,0c5.3-9.5,9-19.8,15.8-28.5C460.5,479.1,458,474.6,455,476.8z"/>
	<path class="st7" d="M455,561.8c-7.8,5.7-14.4,14.7-17.7,24.2c-3.1-3-6.3-5.7-11.1-5c-2.2,0.3-2.2,4,0,4.4c4.4,0.8,7.7,6,9.8,9.6
		c1.5,2.4,5.3,2.6,6.7,0c5.3-9.5,9-19.8,15.8-28.5C460.5,564,458,559.6,455,561.8z"/>
</g>
</svg>
