<?xml version="1.0" encoding="utf-8"?>
<!-- Generator: Adobe Illustrator 24.0.1, SVG Export Plug-In . SVG Version: 6.00 Build 0)  -->
<svg version="1.1" id="圖層_1" xmlns="http://www.w3.org/2000/svg" xmlns:xlink="http://www.w3.org/1999/xlink" x="0px" y="0px"
	 viewBox="0 0 1080 790" style="enable-background:new 0 0 1080 790;" xml:space="preserve">
<style type="text/css">
	.st0{fill:#CF7D3E;}
	.st1{fill:#EADDD0;}
	.st2{fill:#ECA153;}
	.st3{opacity:0.5;fill:#F9D9C7;}
	.st4{fill:#ECECEB;}
	.st5{fill:#6E441F;}
	.st6{fill:none;stroke:#6E441F;stroke-width:0.3698;stroke-linecap:round;stroke-linejoin:round;stroke-miterlimit:10;}
	.st7{fill:#C47136;}
	.st8{fill:#E09348;}
	.st9{fill:#472A27;}
	.st10{fill:#2F1914;}
	.st11{fill:#24120A;}
	.st12{fill:none;stroke:#6E441F;stroke-width:0.3182;stroke-linecap:round;stroke-linejoin:round;stroke-miterlimit:10;}
</style>
<g>
	<g>
		<rect x="370.7" y="249.6" class="st0" width="37.3" height="74.5"/>
		<rect x="382.3" y="249.6" class="st1" width="11.7" height="22.4"/>
		<rect x="301.9" y="249.6" class="st2" width="68.7" height="74.5"/>
		<polygon class="st3" points="304.6,321.2 304.6,252.5 368,252.5 		"/>
		<rect x="383.6" y="249.6" class="st4" width="11.3" height="21.5"/>
		<rect x="340.4" y="300.9" class="st5" width="25.3" height="3.5"/>
		<rect x="348.5" y="307.6" class="st5" width="17.2" height="3.5"/>
		<rect x="358.8" y="313.3" class="st6" width="6.1" height="5.5"/>
		<rect x="349.5" y="313.3" class="st6" width="6.1" height="5.5"/>
	</g>
	<g>
		<rect x="476.6" y="249.6" class="st0" width="37.3" height="74.5"/>
		<rect x="488.2" y="249.6" class="st1" width="11.7" height="22.4"/>
		<rect x="407.9" y="249.6" class="st2" width="68.7" height="74.5"/>
		<polygon class="st3" points="410.6,321.2 410.6,252.5 473.9,252.5 		"/>
		<rect x="489.6" y="249.6" class="st4" width="11.3" height="21.5"/>
		<rect x="446.3" y="300.9" class="st5" width="25.4" height="3.5"/>
		<rect x="454.5" y="307.6" class="st5" width="17.2" height="3.5"/>
		<rect x="464.8" y="313.3" class="st6" width="6.1" height="5.5"/>
		<rect x="455.4" y="313.3" class="st6" width="6.1" height="5.5"/>
	</g>
	<g>
		<rect x="370.7" y="398.7" class="st0" width="37.3" height="74.5"/>
		<rect x="382.3" y="398.7" class="st1" width="11.7" height="22.4"/>
		<rect x="301.9" y="398.7" class="st2" width="68.7" height="74.5"/>
		<polygon class="st3" points="304.6,470.3 304.6,401.6 368,401.6 		"/>
		<rect x="383.6" y="398.7" class="st4" width="11.3" height="21.5"/>
		<rect x="340.4" y="450" class="st5" width="25.3" height="3.5"/>
		<rect x="348.5" y="456.7" class="st5" width="17.2" height="3.5"/>
		<rect x="358.8" y="462.3" class="st6" width="6.1" height="5.5"/>
		<rect x="349.5" y="462.3" class="st6" width="6.1" height="5.5"/>
	</g>
	<g>
		<rect x="476.6" y="398.7" class="st0" width="37.3" height="74.5"/>
		<rect x="488.2" y="398.7" class="st1" width="11.7" height="22.4"/>
		<rect x="407.9" y="398.7" class="st2" width="68.7" height="74.5"/>
		<polygon class="st3" points="410.6,470.3 410.6,401.6 473.9,401.6 		"/>
		<rect x="489.6" y="398.7" class="st4" width="11.3" height="21.5"/>
		<rect x="446.3" y="450" class="st5" width="25.4" height="3.5"/>
		<rect x="454.5" y="456.7" class="st5" width="17.2" height="3.5"/>
		<rect x="464.8" y="462.3" class="st6" width="6.1" height="5.5"/>
		<rect x="455.4" y="462.3" class="st6" width="6.1" height="5.5"/>
	</g>
	<g>
		<rect x="370.7" y="324.1" class="st7" width="37.3" height="74.5"/>
		<rect x="382.3" y="324.1" class="st1" width="11.7" height="22.4"/>
		<rect x="301.9" y="324.1" class="st8" width="68.7" height="74.5"/>
		<polygon class="st3" points="304.6,395.7 304.6,327.1 368,327.1 		"/>
		<rect x="383.6" y="324.1" class="st4" width="11.3" height="21.5"/>
		<rect x="340.4" y="375.4" class="st5" width="25.3" height="3.5"/>
		<rect x="348.5" y="382.2" class="st5" width="17.2" height="3.5"/>
		<rect x="358.8" y="387.8" class="st6" width="6.1" height="5.5"/>
		<rect x="349.5" y="387.8" class="st6" width="6.1" height="5.5"/>
	</g>
	<g>
		<rect x="476.6" y="324.1" class="st7" width="37.3" height="74.5"/>
		<rect x="488.2" y="324.1" class="st1" width="11.7" height="22.4"/>
		<rect x="407.9" y="324.1" class="st8" width="68.7" height="74.5"/>
		<polygon class="st3" points="410.6,395.7 410.6,327.1 473.9,327.1 		"/>
		<rect x="489.6" y="324.1" class="st4" width="11.3" height="21.5"/>
		<rect x="446.3" y="375.4" class="st5" width="25.4" height="3.5"/>
		<rect x="454.5" y="382.2" class="st5" width="17.2" height="3.5"/>
		<rect x="464.8" y="387.8" class="st6" width="6.1" height="5.5"/>
		<rect x="455.4" y="387.8" class="st6" width="6.1" height="5.5"/>
	</g>
	<g>
		<rect x="370.7" y="473.2" class="st7" width="37.3" height="74.5"/>
		<rect x="382.3" y="473.2" class="st1" width="11.7" height="22.4"/>
		<rect x="301.9" y="473.2" class="st8" width="68.7" height="74.5"/>
		<polygon class="st3" points="304.6,544.8 304.6,476.1 368,476.1 		"/>
		<rect x="383.6" y="473.2" class="st4" width="11.3" height="21.5"/>
		<rect x="340.4" y="524.5" class="st5" width="25.3" height="3.5"/>
		<rect x="348.5" y="531.2" class="st5" width="17.2" height="3.5"/>
		<rect x="358.8" y="536.8" class="st6" width="6.1" height="5.5"/>
		<rect x="349.5" y="536.8" class="st6" width="6.1" height="5.5"/>
	</g>
	<g>
		<rect x="476.6" y="473.2" class="st7" width="37.3" height="74.5"/>
		<rect x="488.2" y="473.2" class="st1" width="11.7" height="22.4"/>
		<rect x="407.9" y="473.2" class="st8" width="68.7" height="74.5"/>
		<polygon class="st3" points="410.6,544.8 410.6,476.1 473.9,476.1 		"/>
		<rect x="489.6" y="473.2" class="st4" width="11.3" height="21.5"/>
		<rect x="446.3" y="524.5" class="st5" width="25.4" height="3.5"/>
		<rect x="454.5" y="531.2" class="st5" width="17.2" height="3.5"/>
		<rect x="464.8" y="536.8" class="st6" width="6.1" height="5.5"/>
		<rect x="455.4" y="536.8" class="st6" width="6.1" height="5.5"/>
	</g>
	<rect x="293.7" y="547.7" class="st9" width="229.6" height="11.9"/>
	<rect x="293.7" y="555.7" class="st10" width="229.6" height="3.8"/>
	<rect x="293.7" y="571.5" class="st9" width="229.6" height="10"/>
	<rect x="293.7" y="578.2" class="st10" width="229.6" height="3.2"/>
	<rect x="300.5" y="559.6" class="st9" width="7.7" height="11.9"/>
	<rect x="300.5" y="559.6" class="st11" width="7.7" height="4"/>
	<rect x="342.3" y="559.6" class="st9" width="7.7" height="11.9"/>
	<rect x="342.3" y="559.6" class="st11" width="7.7" height="4"/>
	<rect x="384.1" y="559.6" class="st9" width="7.7" height="11.9"/>
	<rect x="384.1" y="559.6" class="st11" width="7.7" height="4"/>
	<rect x="425.9" y="559.6" class="st9" width="7.7" height="11.9"/>
	<rect x="425.9" y="559.6" class="st11" width="7.7" height="4"/>
	<rect x="467.7" y="559.6" class="st9" width="7.7" height="11.9"/>
	<rect x="467.7" y="559.6" class="st11" width="7.7" height="4"/>
	<rect x="509.5" y="559.6" class="st9" width="7.7" height="11.9"/>
	<rect x="509.5" y="559.6" class="st11" width="7.7" height="4"/>
</g>
<g>
	<g>
		<rect x="597.2" y="327" class="st0" width="32.4" height="63.5"/>
		<rect x="607.2" y="327" class="st1" width="10.2" height="19.1"/>
		<rect x="537.5" y="327" class="st2" width="59.7" height="63.5"/>
		<polygon class="st3" points="539.8,388 539.8,329.4 594.8,329.4 		"/>
		<rect x="608.4" y="327" class="st4" width="9.8" height="18.3"/>
		<rect x="570.8" y="370.7" class="st5" width="22" height="3"/>
		<rect x="578" y="376.4" class="st5" width="14.9" height="3"/>
		<rect x="586.9" y="381.2" class="st12" width="5.3" height="4.7"/>
		<rect x="578.8" y="381.2" class="st12" width="5.3" height="4.7"/>
	</g>
	<g>
		<rect x="781.3" y="517.5" class="st0" width="32.4" height="63.5"/>
		<rect x="791.4" y="517.5" class="st1" width="10.2" height="19.1"/>
		<rect x="721.6" y="517.5" class="st2" width="59.7" height="63.5"/>
		<polygon class="st3" points="723.9,578.6 723.9,520 779,520 		"/>
		<rect x="792.6" y="517.5" class="st4" width="9.8" height="18.4"/>
		<rect x="755" y="561.3" class="st5" width="22" height="3"/>
		<rect x="762.1" y="567" class="st5" width="14.9" height="3"/>
		<rect x="771" y="571.8" class="st12" width="5.3" height="4.7"/>
		<rect x="762.9" y="571.8" class="st12" width="5.3" height="4.7"/>
	</g>
	<g>
		<rect x="597.2" y="454" class="st0" width="32.4" height="63.5"/>
		<rect x="607.2" y="454" class="st1" width="10.2" height="19.1"/>
		<rect x="537.5" y="454" class="st2" width="59.7" height="63.5"/>
		<polygon class="st3" points="539.8,515 539.8,456.5 594.8,456.5 		"/>
		<rect x="608.4" y="454" class="st4" width="9.8" height="18.4"/>
		<rect x="570.8" y="497.7" class="st5" width="22" height="3"/>
		<rect x="578" y="503.4" class="st5" width="14.9" height="3"/>
		<rect x="586.9" y="508.3" class="st12" width="5.3" height="4.7"/>
		<rect x="578.8" y="508.3" class="st12" width="5.3" height="4.7"/>
	</g>
	<g>
		<rect x="689.2" y="454" class="st0" width="32.4" height="63.5"/>
		<rect x="699.3" y="454" class="st1" width="10.2" height="19.1"/>
		<rect x="629.5" y="454" class="st2" width="59.7" height="63.5"/>
		<polygon class="st3" points="631.9,515 631.9,456.5 686.9,456.5 		"/>
		<rect x="700.5" y="454" class="st4" width="9.8" height="18.4"/>
		<rect x="662.9" y="497.7" class="st5" width="22" height="3"/>
		<rect x="670" y="503.4" class="st5" width="14.9" height="3"/>
		<rect x="678.9" y="508.3" class="st12" width="5.3" height="4.7"/>
		<rect x="670.8" y="508.3" class="st12" width="5.3" height="4.7"/>
	</g>
	<g>
		<rect x="597.2" y="390.5" class="st7" width="32.4" height="63.5"/>
		<rect x="607.2" y="390.5" class="st1" width="10.2" height="19.1"/>
		<rect x="537.5" y="390.5" class="st8" width="59.7" height="63.5"/>
		<polygon class="st3" points="539.8,451.5 539.8,393 594.8,393 		"/>
		<rect x="608.4" y="390.5" class="st4" width="9.8" height="18.3"/>
		<rect x="570.8" y="434.2" class="st5" width="22" height="3"/>
		<rect x="578" y="439.9" class="st5" width="14.9" height="3"/>
		<rect x="586.9" y="444.7" class="st12" width="5.3" height="4.7"/>
		<rect x="578.8" y="444.7" class="st12" width="5.3" height="4.7"/>
	</g>
	<g>
		<rect x="689.2" y="390.5" class="st7" width="32.4" height="63.5"/>
		<rect x="699.3" y="390.5" class="st1" width="10.2" height="19.1"/>
		<rect x="629.5" y="390.5" class="st8" width="59.7" height="63.5"/>
		<polygon class="st3" points="631.9,451.5 631.9,393 686.9,393 		"/>
		<rect x="700.5" y="390.5" class="st4" width="9.8" height="18.3"/>
		<rect x="662.9" y="434.2" class="st5" width="22" height="3"/>
		<rect x="670" y="439.9" class="st5" width="14.9" height="3"/>
		<rect x="678.9" y="444.7" class="st12" width="5.3" height="4.7"/>
		<rect x="670.8" y="444.7" class="st12" width="5.3" height="4.7"/>
	</g>
	<g>
		<rect x="597.2" y="517.5" class="st7" width="32.4" height="63.5"/>
		<rect x="607.2" y="517.5" class="st1" width="10.2" height="19.1"/>
		<rect x="537.5" y="517.5" class="st8" width="59.7" height="63.5"/>
		<polygon class="st3" points="539.8,578.6 539.8,520 594.8,520 		"/>
		<rect x="608.4" y="517.5" class="st4" width="9.8" height="18.4"/>
		<rect x="570.8" y="561.3" class="st5" width="22" height="3"/>
		<rect x="578" y="567" class="st5" width="14.9" height="3"/>
		<rect x="586.9" y="571.8" class="st12" width="5.3" height="4.7"/>
		<rect x="578.8" y="571.8" class="st12" width="5.3" height="4.7"/>
	</g>
	<g>
		<rect x="689.2" y="517.5" class="st7" width="32.4" height="63.5"/>
		<rect x="699.3" y="517.5" class="st1" width="10.2" height="19.1"/>
		<rect x="629.5" y="517.5" class="st8" width="59.7" height="63.5"/>
		<polygon class="st3" points="631.9,578.6 631.9,520 686.9,520 		"/>
		<rect x="700.5" y="517.5" class="st4" width="9.8" height="18.4"/>
		<rect x="662.9" y="561.3" class="st5" width="22" height="3"/>
		<rect x="670" y="567" class="st5" width="14.9" height="3"/>
		<rect x="678.9" y="571.8" class="st12" width="5.3" height="4.7"/>
		<rect x="670.8" y="571.8" class="st12" width="5.3" height="4.7"/>
	</g>
</g>
</svg>
